{"title":"Armistice.2013.HDRiP.XViD.AC3-FiRE","uid":9499801,"size":1462098926,"categoryP":"video","categoryS":"movies","magnet":"?xt=urn:btih:726ca7c8cc9cbb386016e936a992ef6da426fb5c&amp;dn=Armistice.2013.HDRiP.XViD.AC3-FiRE&amp;tr=udp%3A%2F%2Ftracker.openbittorrent.com%3A80&amp;tr=udp%3A%2F%2Fopen.demonii.com%3A1337&amp;tr=udp%3A%2F%2Ftracker.coppersurfer.tk%3A6969&amp;tr=udp%3A%2F%2Fexodus.desync.com%3A6969","seeders":12,"leechers":2,"uploader":"Acesn8s","files":-1,"time":1390196817,"description":"Armistice.2013.HDRiP.XViD.AC3-FiRE\n\n**********************************************************************************\n\n[b]Format                                   : AVI\nFormat/Info                              : Audio Video Interleave\nFile size                                : 1.36 GiB\nDuration                                 : 1h 20mn\nOverall bit rate                         : 2 413 Kbps\nWriting application                      : VirtualDubMod 1.5.10.1 \nWriting library                          : VirtualDubMod build 2366/release\n\n**********************************************************************************\n\nVideo\n\nID                                       : 0\nFormat                                   : MPEG-4 Visual\nFormat profile                           : Advanced Simple@L5\nFormat settings, BVOP                    : 2\nFormat settings, QPel                    : No\nFormat settings, GMC                     : No warppoints\nFormat settings, Matrix                  : Custom\nMuxing mode                              : Packed bitstream\nCodec ID                                 : XVID\nCodec ID/Hint                            : XviD\nDuration                                 : 1h 20 mn\nBit rate                                 : 2 020 Kbps\nWidth                                    : 720 pixels\nHeight                                   : 304 pixels\nDisplay aspect ratio                     : 2.35:1\nFrame rate                               : 23.976 fps\nColor space                              : YUV\nChroma subsampling                       : 4:2:0\nBit depth                                : 8 bits\nScan type                                : Progressive\nCompression mode                         : Lossy\nBits/(Pixel*Frame)                       : 0.385\nStream size                              : 1.14 GiB (84%)\nWriting library                          : XviD 58\n\n**********************************************************************************\n\nAudio\n\nID                                       : 1\nFormat                                   : AC-3\nFormat/Info                              : Audio Coding 3\nMode extension                           : CM (complete main)\nFormat settings, Endianness              : Big\nCodec ID                                 : 2000\nDuration                                 : 1h 20mn\nBit rate mode                            : Constant\nBit rate                                 : 384 Kbps (English)\nChannel(s)                               : 6 channels\nChannel positions                        : Front: L C R, Side: L R, LFE\nSampling rate                            : 48.0 KHz\nBit depth                                : 16 bits\nCompression mode                         : Lossy\nStream size                              : 222 MiB (16%)\nAlignment                                : Split accross interleaves\nInterleave, duration                     : 42 ms (1.00 video frame)\nInterleave, preload duration             : 500 ms\nSource                                   : iTUNES\n\n**********************************************************************************\n\nGenre \n\nHorror | Thriller  \n\nActors\n\nJoseph Morgan, Matt Ryan, William Troughton  \n\nPlot \n\nA Royal Marine awakens to find himself imprisoned and forced to fight \nto the death against inhuman opponents again and again. \n\n**********************************************************************************\n\nIMDb \n  &lt;a href=&quot;\nhttp://www.imdb.com/title/tt2112331/&quot; rel=&quot;nofollow&quot; target=&quot;_NEW&quot;&gt;\nhttp://www.imdb.com/title/tt2112331/&lt;/a&gt;\n\n**********************************************************************************\n\nScreens \n &lt;a href=&quot;\nhttp://img.acianetmedia.com/i/MGBtX.jpg&quot; rel=&quot;nofollow&quot; target=&quot;_NEW&quot;&gt;\nhttp://img.acianetmedia.com/i/MGBtX.jpg&lt;/a&gt;\n &lt;a href=&quot;\nhttp://img.acianetmedia.com/i/2mQy6.jpg&quot; rel=&quot;nofollow&quot; target=&quot;_NEW&quot;&gt;\nhttp://img.acianetmedia.com/i/2mQy6.jpg&lt;/a&gt;\n &lt;a href=&quot;\nhttp://img.acianetmedia.com/i/uRBa7.jpg&quot; rel=&quot;nofollow&quot; target=&quot;_NEW&quot;&gt;\nhttp://img.acianetmedia.com/i/uRBa7.jpg&lt;/a&gt;\n &lt;a href=&quot;\nhttp://img.acianetmedia.com/i/orKRl.jpg&quot; rel=&quot;nofollow&quot; target=&quot;_NEW&quot;&gt;\nhttp://img.acianetmedia.com/i/orKRl.jpg&lt;/a&gt;\n &lt;a href=&quot;\nhttp://img.acianetmedia.com/i/nXpjH.jpg&quot; rel=&quot;nofollow&quot; target=&quot;_NEW&quot;&gt;\nhttp://img.acianetmedia.com/i/nXpjH.jpg&lt;/a&gt;","torrent":{"xt":"urn:btih:726ca7c8cc9cbb386016e936a992ef6da426fb5c","amp;dn":"Armistice.2013.HDRiP.XViD.AC3-FiRE","amp;tr":["udp%3A%2F%2Ftracker.openbittorrent.com%3A80","udp%3A%2F%2Fopen.demonii.com%3A1337","udp%3A%2F%2Ftracker.coppersurfer.tk%3A6969","udp%3A%2F%2Fexodus.desync.com%3A6969"],"infoHash":"726ca7c8cc9cbb386016e936a992ef6da426fb5c","infoHashBuffer":{"type":"Buffer","data":[114,108,167,200,204,156,187,56,96,22,233,54,169,146,239,109,164,38,251,92]},"announce":[],"urlList":[]}}